<svg width="19" height="19" viewBox="0 0 19 19" fill="none" xmlns="http://www.w3.org/2000/svg">
<path d="M7.6 0H11.4C13.4156 0 15.3487 0.821243 16.774 2.28307C18.1993 3.74489 19 5.72754 19 7.79487C19 9.8622 18.1993 11.8449 16.774 13.3067C15.3487 14.7685 13.4156 15.5897 11.4 15.5897V19C6.65 17.0513 0 14.1282 0 7.79487C0 5.72754 0.800712 3.74489 2.22599 2.28307C3.65126 0.821243 5.58435 0 7.6 0V0ZM9.5 13.641H11.4C12.1485 13.641 12.8897 13.4898 13.5813 13.196C14.2729 12.9022 14.9012 12.4716 15.4305 11.9287C15.9598 11.3859 16.3797 10.7414 16.6661 10.0321C16.9526 9.32281 17.1 8.5626 17.1 7.79487C17.1 7.02714 16.9526 6.26693 16.6661 5.55765C16.3797 4.84836 15.9598 4.20388 15.4305 3.66102C14.9012 3.11815 14.2729 2.68753 13.5813 2.39373C12.8897 2.09993 12.1485 1.94872 11.4 1.94872H7.6C6.08827 1.94872 4.63845 2.56465 3.56949 3.66102C2.50053 4.75738 1.9 6.24438 1.9 7.79487C1.9 11.3123 4.2389 13.6079 9.5 16.0574V13.641Z" fill="black"/>
</svg>
