<svg width="58" height="58" viewBox="0 0 58 58" fill="none" xmlns="http://www.w3.org/2000/svg">
<path d="M7.55955 0.661338C9.58771 -0.0621967 11.7796 -0.195182 13.8803 0.277843C15.9811 0.750868 17.9044 1.81047 19.4267 3.33346C20.949 4.85645 22.0078 6.78026 22.4799 8.88123C22.952 10.9822 22.818 13.174 22.0935 15.2018L57.3398 50.4481L50.4433 57.3413L15.197 22.0983C13.1689 22.8219 10.977 22.9549 8.87627 22.4818C6.77551 22.0088 4.85217 20.9492 3.32986 19.4262C1.80755 17.9032 0.748812 15.9794 0.276727 13.8784C-0.195359 11.7775 -0.0613936 9.58567 0.663048 7.55784L7.93005 14.8281C8.37975 15.2937 8.91768 15.6651 9.51245 15.9206C10.1072 16.1761 10.7469 16.3106 11.3942 16.3162C12.0415 16.3218 12.6835 16.1985 13.2826 15.9533C13.8817 15.7082 14.426 15.3462 14.8837 14.8885C15.3415 14.4308 15.7034 13.8865 15.9486 13.2874C16.1937 12.6882 16.317 12.0463 16.3114 11.399C16.3058 10.7517 16.1713 10.112 15.9158 9.51724C15.6603 8.92247 15.2889 8.38454 14.8233 7.93484L7.5563 0.658089L7.55955 0.661338ZM41.2523 6.78434L51.5938 1.03834L56.1893 5.63384L50.4433 15.9753L44.6973 17.1258L37.8073 24.0191L33.2085 19.4236L40.1018 12.5303L41.2523 6.78434V6.78434ZM18.2716 32.0628L25.1648 38.9593L9.0773 55.0468C8.19017 55.9257 6.99963 56.4306 5.75119 56.4574C4.50274 56.4842 3.2916 56.031 2.36752 55.1911C1.44344 54.3512 0.876889 53.1887 0.7847 51.9434C0.69251 50.6981 1.08171 49.4649 1.87205 48.4981L2.1873 48.1503L18.2748 32.0628H18.2716Z" fill="black"/>
</svg>
