<svg width="1440" height="574" viewBox="0 0 1440 574" fill="none" xmlns="http://www.w3.org/2000/svg">
<path d="M122.423 554.7C367.519 443.468 451.158 320.801 481.469 227.743C515.295 123.886 497.851 10.3748 534.365 3.32569C557.746 -1.18969 586.516 41.1966 640.154 134.112C802.81 415.868 806.492 490.692 875.792 510.112C972.871 537.336 1032.72 409.259 1181.94 412.02C1291.54 414.052 1380.22 485.363 1440 548.752" stroke="#FFBC0E" stroke-opacity="0.43" stroke-width="5" stroke-miterlimit="10"/>
<path d="M116.538 543.518C354.733 434.681 443.175 315.446 475.891 228.231C512.449 130.766 495.184 23.118 531.319 18.0268C554.55 14.7512 582.779 56.4126 634.59 146.144C792.047 418.798 796.932 494.553 865.698 513.014C963.339 538.86 1020.58 401.519 1171.38 399.649C1174.67 399.608 1177.91 399.608 1181.15 399.69C1288.14 402.45 1378.09 473.795 1439.15 536.794" stroke="#FFBC0E" stroke-opacity="0.43" stroke-width="5" stroke-miterlimit="10"/>
<path d="M110.671 532.336C341.947 425.905 435.124 310.303 470.327 228.725C509.564 137.794 492.543 35.8749 528.287 32.7348C551.376 30.7024 579.068 71.6422 629.038 158.186C781.263 421.725 787.321 498.655 855.63 515.917C953.747 540.713 1008.49 393.711 1160.85 387.275C1164.19 387.133 1167.52 386.99 1170.85 387.007C1279.62 387.563 1374.25 460.381 1438.32 524.833" stroke="#FFBC0E" stroke-opacity="0.43" stroke-width="5" stroke-miterlimit="10"/>
<path d="M104.791 521.155C329.181 417.098 426.947 305.409 464.755 229.22C506.559 144.972 489.908 48.6421 525.242 47.4463C548.2 46.6673 575.322 86.8687 623.476 170.225C770.488 424.679 777.744 502.622 845.553 518.821C944.192 542.383 996.416 385.846 1150.31 374.901C1153.72 374.657 1157.14 374.423 1160.54 374.322C1271.06 371.05 1370.37 446.964 1437.46 512.866" stroke="#FFBC0E" stroke-opacity="0.43" stroke-width="5" stroke-miterlimit="10"/>
<path d="M98.9136 509.973C316.402 408.321 418.606 300.775 459.18 229.714C503.385 152.296 487.289 61.4226 522.203 62.1577C545.033 62.6353 571.592 102.098 617.92 182.267C759.715 427.619 768.172 506.579 835.477 521.72C934.668 544.036 984.356 377.922 1139.77 362.513C1143.26 362.175 1146.75 361.836 1150.25 361.626C1262.53 355.386 1366.53 433.54 1436.63 500.905" stroke="#FFBC0E" stroke-opacity="0.43" stroke-width="5" stroke-miterlimit="10"/>
<path d="M93.0357 498.791C303.626 399.541 410.054 296.422 453.616 230.212C499.969 159.755 484.669 74.2134 519.171 76.8657C541.88 78.6136 567.866 117.325 612.367 194.31C748.953 430.559 758.616 510.521 825.409 524.623C925.144 545.676 972.308 369.945 1129.24 350.149C1132.8 349.699 1136.37 349.242 1139.96 348.95C1253.99 339.77 1362.69 420.133 1435.8 488.954" stroke="#FFBC0E" stroke-opacity="0.43" stroke-width="5" stroke-miterlimit="10"/>
<path d="M87.1616 487.609C290.848 390.75 401.225 292.347 448.038 230.707C496.2 167.288 482.072 87.0209 516.125 91.577C538.72 94.5985 564.129 132.564 606.8 206.348C738.172 433.496 749.052 514.454 815.326 527.523C915.628 547.302 960.249 361.92 1118.69 337.775C1122.34 337.22 1125.97 336.651 1129.65 336.268C1245.42 324.168 1358.82 406.725 1434.95 476.993" stroke="#FFBC0E" stroke-opacity="0.43" stroke-width="5" stroke-miterlimit="10"/>
<path d="M81.2839 476.427C278.069 381.964 381.22 278.604 442.467 231.201C479.563 167.156 479.472 99.8456 513.086 106.285C535.568 110.594 560.399 147.78 601.243 218.407C727.399 436.453 739.495 518.39 805.251 530.443C906.115 548.928 948.194 353.865 1108.15 325.418C1111.86 324.757 1115.59 324.08 1119.35 323.599C1236.88 308.61 1354.99 393.318 1434.12 465.049" stroke="#FFBC0E" stroke-opacity="0.43" stroke-width="5" stroke-miterlimit="10"/>
<path d="M75.4051 465.246C265.293 373.177 371.231 272.571 436.895 231.696C474.459 173.338 476.87 112.687 510.045 120.996C532.418 126.599 556.665 163 595.682 230.432C716.607 439.376 729.945 522.282 795.178 533.329C896.608 550.503 936.133 345.732 1097.61 313.027C1101.4 312.258 1105.2 311.472 1109.05 310.896C1228.33 293.041 1351.12 379.887 1433.28 453.071" stroke="#FFBC0E" stroke-opacity="0.43" stroke-width="5" stroke-miterlimit="10"/>
<path d="M69.5273 454.064C252.514 364.39 361.24 266.545 431.321 232.191C469.352 179.517 474.269 125.542 507.006 135.704C529.266 142.611 552.936 178.23 590.122 242.471C705.852 442.327 720.399 526.175 785.103 536.225C887.11 552.074 924.063 337.575 1087.07 300.646C1090.93 299.772 1094.81 298.881 1098.76 298.207C1219.78 277.504 1347.27 366.466 1432.44 441.107" stroke="#FFBC0E" stroke-opacity="0.43" stroke-width="5" stroke-miterlimit="10"/>
<path d="M63.6523 442.882C239.741 355.603 351.251 260.516 425.749 232.689C464.248 185.702 471.664 138.418 503.963 150.416C526.109 158.64 549.205 193.463 584.565 254.503C695.078 445.247 710.856 530.05 775.026 539.121C877.611 553.623 911.985 329.378 1076.53 288.265C1080.47 287.28 1084.42 286.291 1088.45 285.515C1211.24 261.983 1343.41 353.046 1431.6 429.14" stroke="#FFBC0E" stroke-opacity="0.43" stroke-width="5" stroke-miterlimit="10"/>
<path d="M57.7735 431.697C226.954 346.819 341.27 254.486 420.181 233.197C459.147 191.898 469.055 151.313 500.919 165.141C522.944 174.693 545.471 208.702 579.001 266.569C684.3 448.211 701.309 533.942 764.954 542.044C868.123 555.184 899.895 321.187 1065.99 275.915C1070 274.821 1074.02 273.727 1078.15 272.866C1202.7 246.519 1339.56 339.662 1430.76 417.213" stroke="#FFBC0E" stroke-opacity="0.43" stroke-width="5" stroke-miterlimit="10"/>
<path d="M51.8956 420.515C214.179 338.033 331.267 248.457 414.606 233.678C454.04 198.066 466.428 164.199 497.883 179.835C519.781 190.722 541.741 223.919 573.444 278.598C673.545 451.137 691.775 537.786 754.874 544.934C858.628 556.685 887.785 312.915 1055.45 263.527C1059.53 262.321 1063.65 261.129 1067.87 260.157C1194.18 231.025 1335.72 326.211 1429.93 405.231" stroke="#FFBC0E" stroke-opacity="0.43" stroke-width="5" stroke-miterlimit="10"/>
<path d="M46.029 409.333C201.4 329.246 321.276 242.431 409.035 234.179C448.933 204.255 463.795 177.105 494.844 194.547C516.61 206.775 538.011 239.145 567.888 290.636C662.761 454.077 682.236 541.641 744.799 547.837C849.145 558.182 875.664 304.623 1044.9 251.153C1049.07 249.835 1053.26 248.541 1057.56 247.471C1185.64 215.548 1331.85 312.807 1429.1 393.271" stroke="#FFBC0E" stroke-opacity="0.43" stroke-width="5" stroke-miterlimit="10"/>
<path d="M40.1437 398.152C188.621 320.459 311.288 236.401 403.464 234.67C443.83 210.434 461.153 190.014 491.805 209.265C513.429 222.838 534.282 254.378 562.313 302.685C651.973 457.025 672.683 545.473 734.709 550.743C839.643 559.662 863.513 296.351 1034.35 238.783C1038.59 237.356 1042.86 235.964 1047.24 234.792C1177.11 200.099 1327.98 299.4 1428.23 381.317" stroke="#FFBC0E" stroke-opacity="0.43" stroke-width="5" stroke-miterlimit="10"/>
<path d="M34.266 386.97C175.842 311.672 301.297 230.371 397.89 235.165C438.726 216.615 458.498 202.93 488.766 223.966C510.24 238.891 530.548 269.601 556.772 314.721C641.214 459.955 663.16 549.287 724.652 553.639C830.174 561.108 851.378 288.015 1023.82 226.418C1028.14 224.881 1032.49 223.39 1036.98 222.12C1168.62 184.649 1324.14 285.975 1427.4 369.335" stroke="#FFBC0E" stroke-opacity="0.43" stroke-width="5" stroke-miterlimit="10"/>
<path d="M28.3872 375.788C163.066 302.889 291.304 224.356 392.318 235.659C433.6 222.787 455.831 215.853 485.726 238.677C507.039 254.954 526.818 284.827 551.211 326.749C630.44 462.881 653.62 553.084 714.575 556.525C820.686 562.521 839.208 279.661 1013.28 214.014C1017.67 212.361 1022.1 210.776 1026.66 209.404C1160.11 169.216 1320.3 272.561 1426.56 357.388" stroke="#FFBC0E" stroke-opacity="0.43" stroke-width="5" stroke-miterlimit="10"/>
<path d="M22.5094 364.593C150.287 294.088 281.313 218.302 386.743 236.144C428.512 228.966 453.153 228.759 482.679 253.372C503.832 270.986 523.084 300.04 545.647 338.788C619.663 465.815 644.078 556.881 704.496 559.428C811.198 563.94 827.024 271.318 1002.74 201.66C1007.2 199.892 1011.72 198.212 1016.36 196.738C1151.62 153.796 1316.43 259.151 1425.72 345.444" stroke="#FFBC0E" stroke-opacity="0.43" stroke-width="5" stroke-miterlimit="10"/>
<path d="M16.6344 353.415C137.507 285.328 269.936 254.818 381.175 236.652C422.801 229.853 450.471 241.695 479.643 268.097C500.623 287.066 519.358 315.283 540.094 350.844C608.893 468.775 634.539 560.682 694.424 562.345C801.706 565.322 814.825 262.944 992.204 189.276C996.727 187.399 1001.34 185.621 1006.06 184.046C1143.13 138.374 1312.57 245.73 1424.88 333.466" stroke="#FFBC0E" stroke-opacity="0.43" stroke-width="5" stroke-miterlimit="10"/>
<path d="M10.7566 342.236C124.74 276.521 258.816 215.792 375.604 237.14C417.734 244.842 447.775 254.608 476.603 282.801C497.405 303.126 515.624 330.503 534.534 362.879C598.123 471.709 624.993 564.449 684.348 565.238C792.208 566.674 802.609 254.554 981.661 176.895C986.26 174.903 990.951 173.04 995.759 171.357C1134.75 123.219 1308.73 232.313 1424.05 321.506" stroke="#FFBC0E" stroke-opacity="0.43" stroke-width="5" stroke-miterlimit="10"/>
<path d="M4.87781 331.058C111.952 267.738 249.726 204.966 370.032 237.637C412.707 249.229 445.071 267.531 473.563 297.513C494.179 319.192 511.894 345.735 528.973 374.921C587.349 474.652 615.446 568.452 674.272 568.144C782.705 567.575 790.249 245.923 971.121 164.524C975.785 162.41 980.563 160.46 985.456 158.674C1126.23 107.691 1304.87 218.895 1423.2 309.541" stroke="#FFBC0E" stroke-opacity="0.43" stroke-width="5" stroke-miterlimit="10"/>
<path d="M-1 319.88C99.1735 258.958 241.349 194.208 364.458 238.139C550.045 304.376 566.102 572.605 664.2 571.047C776.028 569.272 778.315 220.321 975.158 145.992C1117.7 92.1664 1301.03 205.481 1422.36 297.587" stroke="#FFBC0E" stroke-opacity="0.43" stroke-width="5" stroke-miterlimit="10"/>
</svg>
