<svg width="14" height="14" viewBox="0 0 14 14" fill="none" xmlns="http://www.w3.org/2000/svg">
<path fill-rule="evenodd" clip-rule="evenodd" d="M4.41077 12.9614C4.74674 13.1215 5.11421 13.2046 5.48639 13.2046H10.8325C12.0641 13.2046 13.1122 12.3076 13.3025 11.0908L13.9283 7.0875C14.1179 5.8745 13.1801 4.77858 11.9523 4.77858H8.66859V2.42096C8.66859 1.52336 7.94094 0.795715 7.04334 0.795715C6.45504 0.795715 5.91266 1.11363 5.62525 1.62695L3.54791 5.33702C3.42254 5.56092 3.35671 5.81324 3.35671 6.06984V11.5123C3.35671 12.0906 3.68923 12.6175 4.21134 12.8663L4.41077 12.9614ZM1.04366 5.52026C0.779409 5.52026 0.525982 5.62523 0.339129 5.81209C0.152276 5.99894 0.0473022 6.25237 0.0473022 6.51662L0.0473027 11.6292C0.0473027 11.8935 0.152276 12.1469 0.339129 12.3338C0.525981 12.5206 0.779408 12.6256 1.04366 12.6256H1.04387L1.54023 12.6254C1.81629 12.6253 2.04001 12.4014 2.04001 12.1254V6.02005C2.04001 5.8874 1.9873 5.76019 1.89349 5.66642C1.79967 5.57264 1.67244 5.51999 1.5398 5.52005L1.04366 5.52026Z" fill="url(#paint0_linear_901_171)"/>
<defs>
<linearGradient id="paint0_linear_901_171" x1="7.00002" y1="0.795715" x2="7.00002" y2="13.2046" gradientUnits="userSpaceOnUse">
<stop stop-color="#FFBFFC"/>
<stop offset="1" stop-color="#F417F9"/>
</linearGradient>
</defs>
</svg>
